# xmcd
#
# Track frame offsets:
#	150
#	16440
#	31609
#	49226
#	62595
#	80075
#	94521
#	116445
#	133065
#	147687
#	166773
#	182959
#	200622
#	217468
#	234380
#
# Disc length: 3403 seconds
#
# Revision: 0
# Processed by: cddbd v1.5.2PL0 Copyright (c) Steve Scherf et al.
# Submitted via: audiograbber 1.83.01
#
DISCID=da0d490f
DTITLE=Sound Choice - Country Hits - Vol. 188 SC8986
DYEAR=1900
DGENRE=Karaoke
TTITLE0=Faith Hill - Sunshine And Summertime
TTITLE1=Cowboy Crush - Hillbilly Nation
TTITLE2=Bob Seger - Wait For Me
TTITLE3=Jack Ingram - Love You
TTITLE4=Toby Keith - Note To Self
TTITLE5=Julie Roberts - Girl Next Door
TTITLE6=Rascal Flatts - Life Is A Highway
TTITLE7=Big and Rich - 8th Of November
TTITLE8=Darryl Worley - Nothin' But A Love Thing
TTITLE9=Blaine Larsen and Gretchen Wilson - Lips Of A Bottle
TTITLE10=Jason Aldean - Amarillo Sky
TTITLE11=Rio Grand - Kill Me Now
TTITLE12=The Lost Trailers - Call Me Crazy
TTITLE13=Heartland - I loved Her First
TTITLE14=Carolina Rain - Get Outta My Way
EXTD=
EXTT0=
EXTT1=
EXTT2=
EXTT3=
EXTT4=
EXTT5=
EXTT6=
EXTT7=
EXTT8=
EXTT9=
EXTT10=
EXTT11=
EXTT12=
EXTT13=
EXTT14=
PLAYORDER=
